<svg width="300" height="300" viewBox="0 0 300 300" fill="none" xmlns="http://www.w3.org/2000/svg">
<g clip-path="url(#clip0_3433_12253)">
<rect width="300" height="300" fill="url(#paint0_linear_3433_12253)"/>
<path d="M283.365 135.599L228.898 41.5506C226.506 37.4299 223.069 34.0088 218.932 31.6304C214.795 29.252 210.103 28 205.328 28L95.547 28.4873C90.7666 28.4873 86.0703 29.7418 81.9303 32.1246C77.7903 34.5075 74.3524 37.9348 71.9622 42.062L16.6486 136.598C14.2607 140.721 13.0025 145.398 13 150.159C12.9976 154.92 14.251 159.598 16.6346 163.723L71.1016 257.772C73.4937 261.893 76.9307 265.314 81.0678 267.692C85.205 270.071 89.8967 271.323 94.6725 271.323L204.453 270.835C209.233 270.835 213.93 269.581 218.07 267.198C222.21 264.815 225.648 261.388 228.038 257.26L283.351 162.725C285.739 158.601 286.998 153.925 287 149.164C287.002 144.403 285.749 139.725 283.365 135.599Z" fill="black"/>
<path d="M63.3017 150.249H56.4295V143.84L70.9462 130.481H47.4723V121.756H83.3009V129.632L69.5562 142.296C78.2046 143.994 84.9223 150.326 84.9223 160.287C84.9223 171.869 75.8881 179.205 64.46 179.205C53.418 179.205 44.847 172.41 44.847 160.21H54.5763C54.5763 166.696 58.5915 170.402 64.6144 170.402C70.7917 170.402 74.8842 166.387 74.8842 160.132C74.8842 154.418 71.1779 150.249 63.3017 150.249Z" fill="url(#paint1_linear_3433_12253)"/>
<path d="M140.765 179.234C152.406 179.234 161.844 169.892 161.844 158.367C161.844 146.843 152.406 137.501 140.765 137.501C129.123 137.501 119.686 146.843 119.686 158.367C119.686 169.892 129.123 179.234 140.765 179.234Z" fill="white"/>
<path d="M133.739 153.733C136.326 153.733 138.423 151.657 138.423 149.096C138.423 146.536 136.326 144.459 133.739 144.459C131.152 144.459 129.055 146.536 129.055 149.096C129.055 151.657 131.152 153.733 133.739 153.733Z" fill="black"/>
<path d="M189.948 179.234C201.589 179.234 211.027 169.892 211.027 158.367C211.027 146.843 201.589 137.501 189.948 137.501C178.306 137.501 168.869 146.843 168.869 158.367C168.869 169.892 178.306 179.234 189.948 179.234Z" fill="white"/>
<path d="M180.578 153.733C183.165 153.733 185.262 151.657 185.262 149.096C185.262 146.536 183.165 144.459 180.578 144.459C177.991 144.459 175.894 146.536 175.894 149.096C175.894 151.657 177.991 153.733 180.578 153.733Z" fill="black"/>
<path d="M108.869 125.73C108.869 121.907 105.77 118.808 101.947 118.808C98.1235 118.808 95.0244 121.907 95.0244 125.73V172.388C95.0244 176.211 98.1235 179.31 101.947 179.31C105.77 179.31 108.869 176.211 108.869 172.388V125.73Z" fill="white"/>
<path d="M252.233 138.392L252.233 138.392C250.053 136.234 246.518 136.234 244.337 138.392L229.573 153.008C227.393 155.166 227.393 158.666 229.573 160.824L229.573 160.824C231.753 162.983 235.289 162.983 237.469 160.824L252.233 146.209C254.414 144.05 254.414 140.551 252.233 138.392Z" fill="white"/>
<path d="M245.077 177.102C247.358 179.361 251.057 179.361 253.338 177.102C255.62 174.844 255.62 171.182 253.338 168.924L237.96 153.701C235.679 151.442 231.98 151.442 229.698 153.701C227.417 155.959 227.417 159.621 229.698 161.879L245.077 177.102Z" fill="white"/>
<path d="M235.674 125.73C235.674 121.907 232.575 118.808 228.752 118.808C224.929 118.808 221.83 121.907 221.83 125.73V172.388C221.83 176.211 224.929 179.31 228.752 179.31C232.575 179.31 235.674 176.211 235.674 172.388V125.73Z" fill="white"/>
</g>
<defs>
<linearGradient id="paint0_linear_3433_12253" x1="-18.8915" y1="-42.9936" x2="304.392" y2="371.994" gradientUnits="userSpaceOnUse">
<stop stop-color="#7714CF"/>
<stop offset="0.48133" stop-color="#A441E7"/>
<stop offset="0.962659" stop-color="#5252FF"/>
</linearGradient>
<linearGradient id="paint1_linear_3433_12253" x1="64.8847" y1="121.756" x2="64.8847" y2="179.205" gradientUnits="userSpaceOnUse">
<stop stop-color="#6613D1"/>
<stop offset="1" stop-color="#CD57EE"/>
</linearGradient>
<clipPath id="clip0_3433_12253">
<rect width="300" height="300" fill="white"/>
</clipPath>
</defs>
</svg>
