<svg width="116" height="50" viewBox="0 0 116 50" fill="none" xmlns="http://www.w3.org/2000/svg">
<path d="M19.2863 25.1099H16.2526V22.2807L22.6609 16.3838H12.2986V12.532H28.1148V16.0088L22.0473 21.599C25.8651 22.3489 28.8306 25.144 28.8306 29.5412C28.8306 34.6542 24.8425 37.8924 19.7976 37.8924C14.9233 37.8924 11.1396 34.8928 11.1396 29.5071H15.4346C15.4346 32.3704 17.2071 34.0065 19.8658 34.0065C22.5927 34.0065 24.3993 32.2341 24.3993 29.473C24.3993 26.9506 22.7632 25.1099 19.2863 25.1099Z" fill="url(#paint0_linear_3708_11850)"/>
<path d="M53.4818 37.9051C58.6209 37.9051 62.7869 33.781 62.7869 28.6938C62.7869 23.6065 58.6209 19.4824 53.4818 19.4824C48.3428 19.4824 44.1768 23.6065 44.1768 28.6938C44.1768 33.781 48.3428 37.9051 53.4818 37.9051Z" fill="white"/>
<path d="M50.3804 26.6481C51.5224 26.6481 52.4482 25.7317 52.4482 24.6012C52.4482 23.4707 51.5224 22.5542 50.3804 22.5542C49.2384 22.5542 48.3126 23.4707 48.3126 24.6012C48.3126 25.7317 49.2384 26.6481 50.3804 26.6481Z" fill="black"/>
<path d="M75.1931 37.9051C80.3322 37.9051 84.4982 33.781 84.4982 28.6938C84.4982 23.6065 80.3322 19.4824 75.1931 19.4824C70.0541 19.4824 65.8881 23.6065 65.8881 28.6938C65.8881 33.781 70.0541 37.9051 75.1931 37.9051Z" fill="white"/>
<path d="M71.0572 26.6481C72.1992 26.6481 73.125 25.7317 73.125 24.6012C73.125 23.4707 72.1992 22.5542 71.0572 22.5542C69.9152 22.5542 68.9894 23.4707 68.9894 24.6012C68.9894 25.7317 69.9152 26.6481 71.0572 26.6481Z" fill="black"/>
<path d="M39.4014 14.2865C39.4014 12.5988 38.0333 11.2307 36.3456 11.2307C34.658 11.2307 33.2899 12.5988 33.2899 14.2865V34.883C33.2899 36.5706 34.658 37.9387 36.3456 37.9387C38.0333 37.9387 39.4014 36.5706 39.4014 34.883V14.2865Z" fill="white"/>
<path d="M102.689 19.8756L102.689 19.8756C101.726 18.9228 100.166 18.9228 99.203 19.8756L92.6854 26.3276C91.7229 27.2804 91.7229 28.8252 92.6854 29.7781L92.6854 29.7781C93.6479 30.7309 95.2085 30.7309 96.171 29.7781L102.689 23.3261C103.651 22.3733 103.651 20.8285 102.689 19.8756Z" fill="white"/>
<path d="M99.5293 36.9641C100.536 37.9611 102.169 37.9611 103.176 36.9641C104.184 35.9671 104.184 34.3507 103.176 33.3538L96.3879 26.6336C95.3807 25.6366 93.7479 25.6366 92.7408 26.6336C91.7336 27.6306 91.7336 29.247 92.7408 30.2439L99.5293 36.9641Z" fill="white"/>
<path d="M95.3787 14.2865C95.3787 12.5988 94.0106 11.2307 92.3229 11.2307C90.6353 11.2307 89.2672 12.5988 89.2672 14.2865V34.883C89.2672 36.5706 90.6353 37.9387 92.3229 37.9387C94.0106 37.9387 95.3787 36.5706 95.3787 34.883V14.2865Z" fill="white"/>
<defs>
<linearGradient id="paint0_linear_3708_11850" x1="19.9851" y1="12.5319" x2="19.9851" y2="37.8924" gradientUnits="userSpaceOnUse">
<stop stop-color="#6613D1"/>
<stop offset="1" stop-color="#CD57EE"/>
</linearGradient>
</defs>
</svg>
